<mxfile host="65bd71144e">
    <diagram id="pIaEtrtLPv3HG8r1JEND" name="Page-1">
        <mxGraphModel dx="1074" dy="741" grid="1" gridSize="10" guides="1" tooltips="1" connect="1" arrows="1" fold="1" page="1" pageScale="1" pageWidth="850" pageHeight="1100" math="0" shadow="0">
            <root>
                <mxCell id="0"/>
                <mxCell id="1" parent="0"/>
                <mxCell id="2" value="" style="rounded=0;whiteSpace=wrap;html=1;" parent="1" vertex="1">
                    <mxGeometry x="80" y="80" width="490" height="380" as="geometry"/>
                </mxCell>
                <mxCell id="3" value="The movie you should watch based on age" style="rounded=0;whiteSpace=wrap;html=1;" parent="1" vertex="1">
                    <mxGeometry x="80" y="80" width="400" height="40" as="geometry"/>
                </mxCell>
                <mxCell id="6" value="Verify" style="labelPosition=center;verticalLabelPosition=middle;align=center;html=1;shape=mxgraph.basic.button;dx=10;" parent="1" vertex="1">
                    <mxGeometry x="100" y="360" width="100" height="40" as="geometry"/>
                </mxCell>
                <mxCell id="7" value="What movie can you see by yourself" style="whiteSpace=wrap;html=1;" vertex="1" parent="1">
                    <mxGeometry x="100" y="170" width="220" height="60" as="geometry"/>
                </mxCell>
                <mxCell id="8" value="If you are" style="text;html=1;align=center;verticalAlign=middle;resizable=0;points=[];autosize=1;strokeColor=none;fillColor=none;" vertex="1" parent="1">
                    <mxGeometry x="90" y="250" width="70" height="20" as="geometry"/>
                </mxCell>
                <mxCell id="9" value="17 years and up" style="text;html=1;align=center;verticalAlign=middle;resizable=0;points=[];autosize=1;strokeColor=none;fillColor=none;" vertex="1" parent="1">
                    <mxGeometry x="120" y="280" width="100" height="20" as="geometry"/>
                </mxCell>
                <mxCell id="10" value="13-16 years old" style="text;html=1;align=center;verticalAlign=middle;resizable=0;points=[];autosize=1;strokeColor=none;fillColor=none;" vertex="1" parent="1">
                    <mxGeometry x="120" y="310" width="100" height="20" as="geometry"/>
                </mxCell>
                <mxCell id="11" value="5-12 years old" style="text;html=1;align=center;verticalAlign=middle;resizable=0;points=[];autosize=1;strokeColor=none;fillColor=none;" vertex="1" parent="1">
                    <mxGeometry x="125" y="340" width="90" height="20" as="geometry"/>
                </mxCell>
                <mxCell id="12" value="" style="shape=waypoint;sketch=0;size=6;pointerEvents=1;points=[];fillColor=none;resizable=0;rotatable=0;perimeter=centerPerimeter;snapToPoint=1;" vertex="1" parent="1">
                    <mxGeometry x="90" y="270" width="40" height="40" as="geometry"/>
                </mxCell>
                <mxCell id="13" value="" style="shape=waypoint;sketch=0;size=6;pointerEvents=1;points=[];fillColor=none;resizable=0;rotatable=0;perimeter=centerPerimeter;snapToPoint=1;" vertex="1" parent="1">
                    <mxGeometry x="90" y="300" width="40" height="40" as="geometry"/>
                </mxCell>
                <mxCell id="14" value="" style="shape=waypoint;sketch=0;size=6;pointerEvents=1;points=[];fillColor=none;resizable=0;rotatable=0;perimeter=centerPerimeter;snapToPoint=1;" vertex="1" parent="1">
                    <mxGeometry x="90" y="330" width="40" height="40" as="geometry"/>
                </mxCell>
            </root>
        </mxGraphModel>
    </diagram>
</mxfile>